<?xml version="1.0" encoding="UTF-8" standalone="no"?>
<!DOCTYPE svg PUBLIC "-//W3C//DTD SVG 1.1//EN" "http://www.w3.org/Graphics/SVG/1.1/DTD/svg11.dtd">
<svg width="100%" height="100%" viewBox="0 0 560 400" version="1.1" xmlns="http://www.w3.org/2000/svg" xmlns:xlink="http://www.w3.org/1999/xlink" xml:space="preserve" xmlns:serif="http://www.serif.com/" style="fill-rule:evenodd;clip-rule:evenodd;stroke-linejoin:round;stroke-miterlimit:2;">
    <g transform="matrix(0.0807845,0,0,0.110752,60.8971,55.66)">
        <rect x="500" y="740" width="4456.3" height="1164.1" style="fill:none;fill-rule:nonzero;"/>
        <g transform="matrix(1.56227,0,0,1.56227,-1534.96,-344.477)">
            <g>
                <g transform="matrix(3.16375,0,0,2.30769,-490.25,331.537)">
                    <path d="M746,190C746,182.8 740.2,177 733,177L326,177C318.8,177 313,182.8 313,190L313,597C313,604.2 318.8,610 326,610L733,610C740.2,610 746,604.2 746,597L746,190Z" style="fill:none;fill-rule:nonzero;"/>
                    <g>
                        <g>
                            <clipPath id="_clip1">
                                <path d="M746,190C746,182.8 740.2,177 733,177L326,177C318.8,177 313,182.8 313,190L313,597C313,604.2 318.8,610 326,610L733,610C740.2,610 746,604.2 746,597L746,190Z"/>
                            </clipPath>
                            <g clip-path="url(#_clip1)">
                                <path d="M746,190C746,182.8 740.2,177 733,177L326,177C318.8,177 313,182.8 313,190L313,597C313,604.2 318.8,610 326,610L733,610C740.2,610 746,604.2 746,597L746,190Z" style="fill:rgb(126,77,210);"/>
                                <path d="M746,190C746,182.8 740.2,177 733,177L490.5,177L313,484.5L313,597C313,604.2 318.8,610 326,610L733,610C740.2,610 746,604.2 746,597L746,190Z" style="fill:rgb(113,64,194);"/>
                                <path d="M751.4,615.6L592.2,615.6L500.2,456.3L751.6,456.3C751.6,509.4 751.5,562.5 751.4,615.6ZM585.7,615.6L334.6,615.6L460.2,398.3L585.7,615.6ZM328.2,615.6L307.5,615.6L307.4,501.7L403.9,334.5L490.5,334.5C436.4,428.2 382.3,521.9 328.2,615.6ZM548.3,334.5C556.6,334.6 564.6,339.2 568.8,346.4C575.4,357.8 582,369.2 588.6,380.6C592.6,387.6 592.9,396.6 589,404C588.9,404.2 588.8,404.4 588.7,404.5C582.2,415.9 575.5,427.3 568.9,438.7C564.8,445.7 557,450.4 548.9,450.6L511,450.6C502.8,450.6 494.9,446.3 490.6,439.3C490.5,439.1 490.4,439 490.3,438.8C483.7,427.4 477.1,416 470.5,404.6C466.5,397.5 466.3,388.5 470.1,381.2C470.2,381 470.3,380.8 470.4,380.7C476.9,369.3 483.6,357.9 490.2,346.5C494.3,339.5 502.1,334.8 510.2,334.5L548.3,334.5ZM751.6,171.4L751.6,450.6L568.6,450.6L729.8,171.4L751.6,171.4ZM598.8,386.9L486.2,192L498.1,171.4L723.2,171.4L598.8,386.9ZM558.7,328.9L407.2,328.9L483,197.7C508.2,241.4 533.5,285.1 558.7,328.9Z" style="fill:rgb(88,50,138);fill-rule:nonzero;"/>
                                <path d="M325,610L313.1,610L313,503.2L407.2,340.1L480.8,340.1L325,610ZM746,461.9L746,610L595.5,610L510,461.9L746,461.9ZM576,610L344.3,610L460.2,409.5L576,610ZM746,445L578.3,445L733,177L746,177L746,445ZM548.1,339.8C554.5,339.8 560.6,343.6 564,349.2C564,349.3 564.1,349.4 564.1,349.4L583.6,383.1C583.6,383.1 583.7,383.3 583.8,383.4C587,389 587.1,396 583.9,401.6C577.4,413 570.7,424.4 564.2,435.8C561,441.3 554.9,445 548.4,445C536,445.1 511.1,445 511.1,445C504.7,445 498.5,441.6 495.1,436C495,435.9 494.9,435.6 494.9,435.6C494.9,435.6 475.4,401.9 475.4,401.8C472.2,396.2 472.2,389 475.4,383.4L475.5,383.2C475.5,383.2 488.5,360.6 495.1,349.3C498.3,343.8 504.5,340 510.9,339.9L547.9,339.9L548.1,339.8ZM501.4,177L713.6,177L598.8,375.7L492.7,192L501.4,177ZM549,323.2L416.9,323.2L482.9,208.8L549,323.2Z" style="fill:url(#_Radial2);"/>
                                <path d="M314.6,628L302.9,627.6L303,520.5L407.1,340.1L480.7,340.1L314.6,628ZM585.7,626.9L335.3,625.5L460.2,409.5L585.7,626.9ZM755.2,626.2L604.2,625.2L510,461.9L755.8,461.9L755.2,626.2ZM410.2,345.3L308.2,521.9L308.1,622.6L311.6,622.7L471.7,345.4L410.2,345.4L410.2,345.3ZM344.3,620.4L576.7,621.7L460.2,419.9L344.3,620.4ZM519,467.1L607.3,620L750.1,621L750.6,467.1L519,467.1ZM547.9,339.8L552.7,339.8L561.6,348.7L561.7,348.9L581.2,382.6L581.4,382.9L583.2,384.7L583.4,385.3L583.4,385.5L583.5,385.8L583.5,386.6L583.6,387L583.6,387.5L583.7,387.8L583.7,394.6L585,399L583.1,400.9L577.1,411.9L571.1,422.4L568.6,426.7L563.8,435.1L558,440.9L558,442L555.1,444.9L507.1,444.9L499.2,437L499.2,435.6L499,435.2L479.5,401.4L479.5,400.8L477.8,399.1L477.8,399L477.7,398.9L477.7,389.7L479.8,387.6L479.9,387.4L482,383.7L484.3,379.7L487.2,374.7L490.4,369.2L493.6,363.6L496.7,358.2L498.1,355.7L499.4,353.5L508.4,344.5L514.3,344.5L547.9,339.8ZM754.9,445L578.3,445L742,161.5L755.5,160.7L754.9,445ZM511.1,345L503.9,345L497.6,351.3L500,351L499.1,351.9L497.8,354.1L496.4,356.6L493.3,362L490.1,367.6L486.9,373.1L484,378.1L481.7,382.1L479.6,385.8L479.5,386L479.5,386.1L479.3,386.3L479.3,386.4L479.2,386.5L479.2,395.9L479.3,396.1L479.3,396.9L479.4,397.1L479.4,398.2L479.5,398.4L479.8,398.7L499.3,432.5L499.5,432.8L500.8,434.1L500.9,434.3L505.6,439L506.3,439L506.5,439.1L554.7,439.1L561.8,432L566.6,423.6L569.1,419.3L575.1,408.8L580.5,398.9L581.1,397.9L581.1,397.8L581.2,397.7L581.2,397.6L581.3,397.5L581.3,385.7L581.2,385.6L581.2,385.5L580.8,385.1L580.6,384.8L559.6,352L558.7,351.1L559,351L552.7,344.7L545.8,344.7L511.1,345ZM745,166.6L587.3,439.8L749.8,439.8L750.2,166.2L745,166.6ZM598.8,375.7L492.7,192L509.6,162.7L722.3,161.8L598.8,375.7ZM512.6,167.9L498.7,192L598.8,365.4L713.3,167L512.6,167.9ZM549,323.2L416.9,323.2L482.9,208.8L549,323.2ZM425.9,318L540,318L483,219.2L425.9,318Z" style="fill:url(#_Linear3);"/>
                            </g>
                        </g>
                    </g>
                </g>
                <g>
                    <path d="M2480.1,1215.1L2253.5,1215.1L2253.5,1739.3L2393.8,1739.3L2393.8,1564.6L2480.1,1564.6C2691.6,1564.6 2800.6,1511.1 2800.6,1389.1C2800.6,1267.1 2691.6,1215.1 2480.1,1215.1ZM2475.8,1483.5L2393.8,1483.5L2393.8,1296.2L2475.8,1296.2C2594.5,1296.2 2658.1,1316.7 2658.1,1389.1C2658.1,1461.4 2594.4,1483.5 2475.8,1483.5ZM2884.7,1739.2L3019.6,1739.2L3019.6,1524.4C3019.6,1448.9 3068.2,1415.8 3137.2,1415.8C3196.5,1415.8 3226.8,1441.8 3226.8,1497.6L3226.8,1739.2L3361.6,1739.2L3361.6,1484.2C3361.6,1382.7 3287.2,1335.4 3180.4,1335.4C3104.9,1335.4 3052,1361.4 3022.9,1407L3019.7,1407L3019.7,1190.6L2884.8,1190.6L2884.7,1739.2ZM3715.5,1750.2C3878.5,1750.2 3984.2,1669.9 3984.2,1543.2C3984.2,1416.5 3878.5,1335.4 3715.5,1335.4C3553.7,1335.4 3446.9,1420.4 3446.9,1543.2C3446.8,1670 3551.5,1750.2 3715.5,1750.2ZM3715.5,1674.7C3638.9,1674.7 3585,1628.3 3585,1543.3C3585,1457.5 3638.9,1411 3715.5,1411C3793.2,1411 3846.1,1457.5 3846.1,1543.3C3846.1,1628.3 3793.2,1674.7 3715.5,1674.7ZM4318.6,1675.5C4267.9,1675.5 4248.5,1654.2 4248.5,1606.2L4248.5,1418.9L4369.4,1418.9L4369.4,1347.3L4248.5,1347.3L4248.5,1221.4L4113.6,1241.1L4113.6,1347.4L4020.8,1347.4L4020.8,1419L4113.6,1419L4113.6,1615.8C4113.6,1708.7 4167.5,1748.8 4284,1748.8C4320.7,1748.8 4358.5,1744.9 4388.7,1732.3L4388.7,1661.5C4371.5,1669.2 4346.7,1675.5 4318.6,1675.5ZM4687.6,1750.2C4850.6,1750.2 4956.3,1669.9 4956.3,1543.2C4956.3,1416.5 4850.6,1335.4 4687.6,1335.4C4525.8,1335.4 4419,1420.4 4419,1543.2C4419,1670 4523.7,1750.2 4687.6,1750.2ZM4687.6,1674.7C4611,1674.7 4557.1,1628.3 4557.1,1543.3C4557.1,1457.5 4611,1411 4687.6,1411C4765.3,1411 4818.2,1457.5 4818.2,1543.3C4818.2,1628.3 4765.3,1674.7 4687.6,1674.7Z" style="fill:rgb(216,217,219);fill-rule:nonzero;"/>
                    <path d="M2862.4,764.3L2693,764.3L2693,867L2789.9,867L2789.9,891L2693,891L2693,1019.8L2657.7,1019.8L2657.7,740L2862.4,740L2862.4,764.3ZM3745.5,1019.8L3709.8,1019.8L3709.8,740L3745.5,740L3745.5,1019.8ZM3247.6,1019.8L3211.9,1019.8L3211.9,740L3247.6,740L3247.6,1019.8ZM3139.5,764.3L2970.1,764.3L2970.1,867L3067,867L3067,891L2970.1,891L2970.1,1019.8L2934.8,1019.8L2934.8,740L3139.5,740L3139.5,764.3ZM4057.6,764.3L3955.7,764.3L3955.7,1019.8L3920,1019.8L3920,764.3L3817.6,764.3L3817.6,740L4057.6,740L4057.6,764.3ZM3355.3,1019.8L3320,1019.8L3320,740L3358,740L3601.5,975.9L3601.5,740L3637.2,740L3637.2,1019.8L3602.4,1019.8L3355.3,779.7L3355.3,1019.8ZM4287.5,1019.8L4251.4,1019.8L4251.4,951.4L4085.9,740L4126.6,740L4269.4,921.4L4412.2,740L4452.9,740L4287.5,951.4L4287.5,1019.8ZM2626.1,1019.8L2588.1,1019.8L2439.6,775.6C2430.3,791.2 2339.9,941.2 2330.2,957.1C2349.1,957.1 2511.2,958.3 2520.5,958.3L2535.3,981.8C2503,981.7 2358.1,981.3 2315.2,981.3C2311.3,987.3 2294.8,1014 2291.6,1019.7L2253.6,1019.7L2423.6,739.9L2456.3,739.9L2626.1,1019.8Z" style="fill:rgb(216,217,219);"/>
                </g>
            </g>
        </g>
    </g>
    <defs>
        <radialGradient id="_Radial2" cx="0" cy="0" r="1" gradientUnits="userSpaceOnUse" gradientTransform="matrix(131.505,0,0,-131.505,644.54,95.9741)"><stop offset="0" style="stop-color:rgb(249,166,255);stop-opacity:1"/><stop offset="1" style="stop-color:rgb(234,115,255);stop-opacity:1"/></radialGradient>
        <linearGradient id="_Linear3" x1="0" y1="0" x2="1" y2="0" gradientUnits="userSpaceOnUse" gradientTransform="matrix(6.77636e-15,110.666,-110.666,6.77636e-15,529.434,177.012)"><stop offset="0" style="stop-color:rgb(247,179,255);stop-opacity:1"/><stop offset="1" style="stop-color:rgb(238,138,255);stop-opacity:1"/></linearGradient>
    </defs>
</svg>
