<?xml version="1.0" encoding="UTF-8" standalone="no"?>
<!DOCTYPE svg PUBLIC "-//W3C//DTD SVG 1.1//EN" "http://www.w3.org/Graphics/SVG/1.1/DTD/svg11.dtd">
<svg width="100%" height="100%" viewBox="0 0 560 400" version="1.1" xmlns="http://www.w3.org/2000/svg" xmlns:xlink="http://www.w3.org/1999/xlink" xml:space="preserve" xmlns:serif="http://www.serif.com/" style="fill-rule:evenodd;clip-rule:evenodd;stroke-linejoin:round;stroke-miterlimit:2;">
    <g transform="matrix(0.0957234,0,0,0.0994489,18.8463,97.3669)">
        <g>
            <g transform="matrix(2.3975,0,0,2.30769,-250.418,331.537)">
                <path d="M603.6,121.3C603.6,112.1 596.1,104.6 586.9,104.6L63.1,104.6C53.9,104.6 46.4,112.1 46.4,121.3L46.4,645.1C46.4,654.3 53.9,661.8 63.1,661.8L586.9,661.8C596.1,661.8 603.6,654.3 603.6,645.1L603.6,121.3Z" style="fill:rgb(20,78,140);"/>
                <g>
                    <g>
                        <clipPath id="_clip1">
                            <path d="M603.6,121.3C603.6,112.1 596.1,104.6 586.9,104.6L63.1,104.6C53.9,104.6 46.4,112.1 46.4,121.3L46.4,645.1C46.4,654.3 53.9,661.8 63.1,661.8L586.9,661.8C596.1,661.8 603.6,654.3 603.6,645.1L603.6,121.3Z"/>
                        </clipPath>
                        <g clip-path="url(#_clip1)">
                            <path d="M603.6,121.3C603.6,112.1 596.1,104.6 586.9,104.6L63.1,104.6C53.9,104.6 46.4,112.1 46.4,121.3L46.4,645.1C46.4,654.3 53.9,661.8 63.1,661.8L586.9,661.8C596.1,661.8 603.6,654.3 603.6,645.1L603.6,121.3Z" style="fill:rgb(27,114,190);"/>
                            <path d="M603.6,121.3C603.6,112.1 596.1,104.6 586.9,104.6L274.9,104.6L46.4,500.3L46.4,645.1C46.4,654.3 53.9,661.8 63.1,661.8L586.9,661.8C596.1,661.8 603.6,654.3 603.6,645.1L603.6,121.3Z" style="fill:rgb(5,104,170);"/>
                            <path d="M304,661.9L265.1,661.9L164.7,460.1L360.3,104.7L391.8,104.7L187.1,459.3L304,661.9ZM409.3,661.9L312.4,661.9L198.2,464.1L603.7,464.1L603.7,501L409.3,661.9ZM312.9,104.6L280.4,104.6L46.4,510L46.4,566.4L312.9,104.6ZM369.5,456.8L259.3,456.8C246.4,456.8 234.5,450.1 228,438.9C221.6,427.8 221.6,414 228,402.9L283.2,307.3L369.5,456.8ZM603.6,456.8L377.8,456.8L287.3,300.1L400.1,104.7L441,104.7L381.6,306.7L409.2,363.3L603.5,439.7L603.5,456.8L603.6,456.8Z" style="fill:rgb(7,79,127);"/>
                            <path d="M603.6,661.9L320.7,661.9L210.7,471.3L603.6,471.3L603.6,661.9ZM295.6,661.9L46.4,661.9L46.4,524.5L288.8,104.7L383.5,104.7L178.7,459.3L295.6,661.9ZM357,449.6L261.2,449.6C250.5,449.6 240.6,444 235.3,434.7C230,425.5 230,414 235.3,404.8C256.6,367.9 283.2,321.8 283.2,321.8L357,449.6ZM603.6,449.6L382,449.6L295.7,300.1L408.5,104.7L603.5,104.7L603.5,449.6L603.6,449.6Z" style="fill:url(#_Radial2);"/>
                            <path d="M616.5,672.1L326.6,672.1L210.7,471.3L616.3,471.3L616.5,672.1ZM178.7,459.3L301.6,672.1L29.3,672.1L28.4,555.7L295.5,93L390.2,93L178.7,459.3ZM222.3,478L330.5,665.4L609.8,665.4L609.6,478L222.3,478ZM299.3,99.7L35,557.4L35.8,665.4L290,665.4L171,459.3L378.6,99.7L299.3,99.7ZM357,449.6L251,449.6L250.9,449.5L250.5,449.5L250.4,449.4L250.3,449.4L250.2,449.3L250.1,449.3L249.2,448.4L247,446L234.8,433.8L236,436L232.2,432.2L232.2,411.8L234.8,409.2L282.7,326.2L357,449.6ZM616.2,449.6L382,449.6L295.7,300.1L415.3,93L613.8,93L616.2,449.6ZM241.1,408.1L241,408.3L241,427.9L241.1,428.1L241.1,428.3L241.2,428.5L241.2,429.8L241.3,430L241.3,430.5L241.4,430.8L241.4,431.4L241.5,431.6L241.5,432.6L241.6,432.9L241.6,433.8L241.7,433.9L241.7,434.1L242.7,435.1L242.8,435.3L243.3,435.8L243.4,436L243.6,436.2L243.7,436.4L244.2,436.9L244.3,437.1L251.2,444L251.3,444L251.6,444.3L251.8,444.4L252,444.4L252.1,444.5L252.2,444.5L252.3,444.6L252.4,444.6L252.6,444.7L252.7,444.8L253,444.8L253.3,445L254.7,445L254.9,445.1L255,445.1L255.2,445.2L256.7,445.2L256.9,445.3L257.3,445.3L257.5,445.4L258.6,445.4L258.8,445.5L259,445.5L259.2,445.6L350.5,445.6L288.3,337.9L241.1,408.1ZM419.1,99.7L303.4,300.1L385.9,442.9L609.5,442.9L607.2,99.7L419.1,99.7Z" style="fill:url(#_Linear3);"/>
                        </g>
                    </g>
                </g>
            </g>
            <g>
                <path d="M1804.3,1184.4L1570.7,1184.4L1570.7,1858.9L1797,1858.9C2027.4,1858.9 2162.1,1749.5 2162.1,1520.6C2162.1,1290.7 2024.3,1184.4 1804.3,1184.4ZM1782.2,1754.6L1707.5,1754.6L1707.5,1288.7L1790.6,1288.7C1936.9,1288.7 2021,1350.5 2021,1522.7C2021.1,1693.8 1936.9,1754.6 1782.2,1754.6ZM2736.6,1606.7C2736.6,1427.4 2639.8,1339.3 2487.2,1339.3C2331.5,1339.3 2227.3,1454.8 2227.3,1607.7C2227.3,1758.6 2317.8,1873 2488.2,1873C2615.5,1873 2693.4,1812.2 2717.6,1739.3L2607.1,1695.8C2588.2,1747.4 2553.5,1781.9 2489.3,1781.9C2403,1781.9 2364.1,1710 2358.8,1636.1L2736.6,1636.1L2736.6,1606.7ZM2487.2,1429.5C2564,1429.5 2601.9,1483.2 2607.1,1559.1L2359.8,1559.1C2371.5,1482.1 2416.7,1429.5 2487.2,1429.5ZM3012.3,1873.1C3152.3,1873.1 3235.4,1809.3 3235.4,1709.1C3235.4,1599.7 3138.6,1577.4 3030.2,1554.1C2962.9,1539.9 2927.1,1528.8 2927.1,1487.3C2927.1,1451.8 2951.3,1425.5 3007.1,1425.5C3054.4,1425.5 3093.4,1445.7 3107,1502.5L3223.8,1473.1C3204.8,1389.1 3133.3,1339.4 3009.1,1339.4C2864.9,1339.4 2797.6,1407.2 2797.6,1495.4C2797.6,1596.7 2880.8,1626 2989.1,1649.4C3066.9,1665.6 3104.8,1674.7 3104.8,1718.2C3104.8,1759.8 3068,1785.1 3012.2,1785.1C2952.2,1785.1 2916.4,1757.8 2903.8,1703L2786,1731.4C2797.6,1809.3 2871.3,1873.1 3012.3,1873.1ZM3375.3,1277.6C3420.6,1277.6 3453.2,1244.2 3453.2,1202.6C3453.2,1161.1 3420.6,1128.7 3375.3,1128.7C3329,1128.7 3296.4,1161.1 3296.4,1202.6C3296.4,1244.1 3329,1277.6 3375.3,1277.6ZM3310.1,1858.9L3441.6,1858.9L3441.6,1354.5L3310.1,1354.5L3310.1,1858.9ZM3960.4,1780.9C3928.9,1765.7 3884.7,1757.6 3827.8,1757.6L3767.8,1757.6C3701.5,1757.6 3677.3,1753.5 3677.3,1731.2C3677.3,1709.9 3706.8,1706.9 3745.7,1703.9C3815.2,1698.8 3872,1689.7 3915.1,1662.3C3957.2,1635 3991.9,1589.4 3991.9,1519.5C3991.9,1454.7 3962.4,1406 3914,1375.6C3929.8,1358.4 3951.9,1353.3 3971.9,1353.3C3995.1,1353.3 4018.2,1360.4 4030.8,1369.5L4044.5,1270.3C4036.1,1266.3 4016.1,1258.1 3985.6,1258.1C3931.9,1258.1 3886.7,1284.5 3867.7,1354.3C3838.3,1344.2 3805.6,1339.1 3769.9,1339.1C3627.8,1339.1 3545.7,1420.1 3545.7,1524.4C3545.7,1598.3 3587.8,1656.1 3649.9,1678.4C3597.2,1681.4 3560.4,1706.8 3560.4,1746.3C3560.4,1783.8 3588.8,1804 3619.3,1812.1L3619.3,1815.1C3575.1,1820.2 3515.2,1848.6 3515.2,1920.5C3515.2,2004.5 3600.4,2069.4 3770.9,2069.4C3944.5,2069.4 4031.8,2002.6 4031.8,1899.3C4031.9,1841.7 4008.8,1803.2 3960.4,1780.9ZM3768.9,1423.4C3833.1,1423.4 3866.8,1468 3866.8,1521.6C3866.8,1575.3 3835.2,1620.8 3768.9,1620.8C3704.7,1620.8 3670,1575.2 3670,1521.6C3670,1468 3704.7,1423.4 3768.9,1423.4ZM3773.1,1983.5C3675.2,1983.5 3638.4,1948 3638.4,1906.5C3638.4,1864 3680.5,1845.7 3712.1,1840.7L3775.2,1840.7C3851,1840.7 3906.8,1847.8 3906.8,1905.5C3906.7,1951.1 3867.8,1983.5 3773.1,1983.5ZM4108.7,1858.9L4240.3,1858.9L4240.3,1582.4C4240.3,1485.2 4287.6,1442.6 4355,1442.6C4412.9,1442.6 4442.3,1476 4442.3,1547.9L4442.3,1858.8L4573.9,1858.8L4573.9,1530.6C4573.9,1400 4501.3,1339.2 4397.1,1339.2C4323.4,1339.2 4265.6,1370.6 4236.1,1444.6L4234,1444.6L4230.8,1354.5L4108.7,1354.5L4108.7,1858.9ZM5166.2,1606.7C5166.2,1427.4 5069.4,1339.3 4916.8,1339.3C4761.1,1339.3 4656.9,1454.8 4656.9,1607.7C4656.9,1758.6 4747.4,1873 4917.9,1873C5045.3,1873 5123.1,1812.2 5147.3,1739.3L5036.8,1695.8C5017.9,1747.4 4983.2,1781.9 4919,1781.9C4832.7,1781.9 4793.7,1710 4788.5,1636.1L5166.2,1636.1L5166.2,1606.7ZM4916.9,1429.5C4993.7,1429.5 5031.6,1483.2 5036.8,1559.1L4789.5,1559.1C4801.1,1482.1 4846.3,1429.5 4916.9,1429.5ZM5248.3,1858.9L5379.8,1858.9L5379.8,1642.2C5379.8,1507.5 5445.1,1449.7 5518.7,1449.7C5545.1,1449.7 5565,1455.8 5577.7,1461.9L5595.6,1349.4C5587.1,1345.3 5569.3,1339.3 5535.6,1339.3C5479.8,1339.3 5407.2,1365.6 5374.6,1470L5372.5,1470L5370.4,1354.5L5248.3,1354.5L5248.3,1858.9Z" style="fill:rgb(216,217,219);fill-rule:nonzero;"/>
                <path d="M2164.7,604.2L1999.4,604.2L1999.4,736.4L2093.9,736.4L2093.9,767.2L1999.4,767.2L1999.4,933L1965,933L1965,573L2164.7,573L2164.7,604.2ZM3025.8,933L2991,933L2991,573L3025.8,573L3025.8,933ZM2540.2,933L2505.3,933L2505.3,573L2540.2,573L2540.2,933ZM2434.9,604.2L2269.6,604.2L2269.6,736.4L2364.1,736.4L2364.1,767.2L2269.6,767.2L2269.6,933L2235.2,933L2235.2,573L2434.9,573L2434.9,604.2ZM3330.1,604.2L3230.8,604.2L3230.8,933L3195.9,933L3195.9,604.2L3096,604.2L3096,573L3330.1,573L3330.1,604.2ZM2645.2,933L2610.8,933L2610.8,573L2647.9,573L2885.4,876.6L2885.4,573L2920.2,573L2920.2,933L2886.2,933L2645.2,624L2645.2,933ZM3554.3,933L3519.1,933L3519.1,845L3357.8,573L3397.5,573L3536.7,806.4L3675.9,573L3715.6,573L3554.3,845L3554.3,933ZM1934.2,933L1897.1,933L1752.2,618.8C1743.1,638.9 1654.9,831.9 1645.6,852.4C1664.1,852.4 1822.1,853.9 1831.2,854L1845.6,884.3C1814.1,884.1 1672.8,883.7 1630.9,883.7C1627.1,891.4 1611,925.8 1607.9,933.2L1570.8,933.2L1736.5,573L1768.4,573L1934.2,933Z" style="fill:rgb(216,217,219);"/>
            </g>
        </g>
    </g>
    <defs>
        <radialGradient id="_Radial2" cx="0" cy="0" r="1" gradientUnits="userSpaceOnUse" gradientTransform="matrix(128.209,0,0,-128.209,472.263,-0.0964176)"><stop offset="0" style="stop-color:rgb(107,225,251);stop-opacity:1"/><stop offset="1" style="stop-color:rgb(56,189,250);stop-opacity:1"/></radialGradient>
        <linearGradient id="_Linear3" x1="0" y1="0" x2="1" y2="0" gradientUnits="userSpaceOnUse" gradientTransform="matrix(-0.00188363,-107.924,107.924,-0.00188363,322.762,661.862)"><stop offset="0" style="stop-color:rgb(74,197,250);stop-opacity:1"/><stop offset="1" style="stop-color:rgb(151,232,252);stop-opacity:1"/></linearGradient>
    </defs>
</svg>
