<?xml version="1.0" encoding="UTF-8" standalone="no"?>
<!DOCTYPE svg PUBLIC "-//W3C//DTD SVG 1.1//EN" "http://www.w3.org/Graphics/SVG/1.1/DTD/svg11.dtd">
<svg width="100%" height="100%" viewBox="0 0 120 60" version="1.1" xmlns="http://www.w3.org/2000/svg" xmlns:xlink="http://www.w3.org/1999/xlink" xml:space="preserve" xmlns:serif="http://www.serif.com/" style="fill-rule:evenodd;clip-rule:evenodd;stroke-linejoin:round;stroke-miterlimit:2;">
    <g id="original-wordmark" transform="matrix(0.851015,0,0,0.851015,5.51984,-24.4727)">
        <path id="path4" d="M40.53,77.82L40.53,50.74L42,50.74L42,55C42.174,54.811 42.334,54.611 42.48,54.4C43.704,51.859 46.3,50.248 49.12,50.28C52.47,50.18 55.19,51.42 56.79,54.4C58.854,58.153 58.973,62.683 57.11,66.54C55.62,69.88 51.94,71.54 48,70.93C45.511,70.718 43.294,69.255 42.12,67.05L42.12,77.82L40.53,77.82ZM42,60.32C42.13,61.64 42.18,62.58 42.33,63.5C42.91,67.12 45.05,69.27 48.41,69.66C51.651,70.193 54.846,68.345 56,65.27C57.305,62.157 57.211,58.628 55.74,55.59C54.511,52.842 51.591,51.228 48.61,51.65C45.817,51.852 43.444,53.814 42.72,56.52C42.407,57.772 42.166,59.04 42,60.32Z" style="fill:white;fill-rule:nonzero;"/>
        <path id="path6" d="M88.41,64C87.951,67.925 84.621,70.937 80.67,71C74.51,71.31 71.62,67.22 71.16,62.5C70.841,59.937 71.257,57.335 72.36,55C73.932,51.721 77.469,49.825 81.07,50.33C84.492,50.62 87.362,53.082 88.17,56.42C88.483,57.906 88.713,59.408 88.86,60.92L72.67,60.92C72.37,65.2 74.67,68.64 77.93,69.47C81.99,70.47 85.46,68.71 86.72,64.85C87,63.86 87.51,63.72 88.41,64ZM72.67,59.55L87.14,59.55C87.05,54.99 84.21,51.69 80.36,51.64C76,51.57 72.86,54.75 72.67,59.55Z" style="fill:white;fill-rule:nonzero;"/>
        <path id="path8" d="M91.39,64.1L92.81,64.1C92.917,66.227 94.209,68.123 96.15,69C98.574,70.091 101.367,70.017 103.73,68.8C105.03,68.214 105.831,66.872 105.73,65.45C105.805,64.075 104.952,62.808 103.65,62.36C102.09,61.78 100.43,61.46 98.84,60.95C97.186,60.479 95.568,59.887 94,59.18C91.44,57.93 91.28,53.06 94.18,51.52C97.194,49.819 100.875,49.763 103.94,51.37C105.809,52.403 106.848,54.497 106.54,56.61L105.32,56.61C105.32,56.55 105.21,56.5 105.21,56.44C105.06,52.55 101.8,51.35 98.3,51.69C97.255,51.819 96.24,52.127 95.3,52.6C94.145,53.128 93.445,54.335 93.56,55.6C93.564,56.865 94.367,57.998 95.56,58.42C97.1,58.98 98.71,59.34 100.29,59.78C101.56,60.13 102.88,60.36 104.11,60.78C105.883,61.361 107.121,62.986 107.21,64.85C107.514,66.895 106.466,68.918 104.62,69.85C101.28,71.74 95.78,71.24 93.33,68.85C92.076,67.589 91.377,65.878 91.39,64.1Z" style="fill:white;fill-rule:nonzero;"/>
        <path id="path10" d="M125.21,56.61L123.88,56.61C123.88,56.43 123.81,56.27 123.79,56.12C123.746,54.073 122.262,52.321 120.25,51.94C118.402,51.41 116.429,51.505 114.64,52.21C113.192,52.625 112.182,53.953 112.17,55.46C112.119,56.944 113.127,58.271 114.57,58.62C116.57,59.24 118.62,59.62 120.65,60.18C121.308,60.338 121.956,60.535 122.59,60.77C124.574,61.48 125.906,63.371 125.906,65.478C125.906,67.48 124.703,69.297 122.86,70.08C120.008,71.375 116.737,71.408 113.86,70.17C111.468,69.138 109.962,66.712 110.1,64.11L111.4,64.11C112.099,67.481 115.095,69.92 118.538,69.92C119.944,69.92 121.32,69.514 122.5,68.75C123.735,68.108 124.487,66.8 124.42,65.41C124.482,64.034 123.617,62.775 122.31,62.34C120.75,61.76 119.09,61.45 117.5,60.94C115.836,60.476 114.209,59.891 112.63,59.19C110.13,57.96 109.93,53.13 112.78,51.59C115.834,49.816 119.607,49.774 122.7,51.48C124.476,52.54 125.463,54.558 125.21,56.61Z" style="fill:white;fill-rule:nonzero;"/>
        <path id="path12" d="M38.1,70.51C37.022,70.918 35.795,70.452 35.26,69.43C33.63,66.99 31.83,64.66 30.1,62.28L29.35,61.28C27.29,64.04 25.23,66.69 23.35,69.44C22.846,70.416 21.684,70.872 20.65,70.5L28.38,60.13L21.19,50.76C22.253,50.376 23.45,50.796 24.04,51.76C25.71,54.2 27.56,56.53 29.4,59C31.25,56.55 33.08,54.21 34.79,51.79C35.297,50.829 36.457,50.396 37.47,50.79L34.68,54.49C33.43,56.14 32.2,57.8 30.9,59.41C30.688,59.6 30.567,59.871 30.567,60.155C30.567,60.439 30.688,60.71 30.9,60.9C33.29,64.07 35.66,67.25 38.1,70.51Z" style="fill:white;fill-rule:nonzero;"/>
        <path id="path14" d="M70.92,50.66L70.92,52.06C70.762,52.05 70.604,52.044 70.445,52.044C66.468,52.044 63.195,55.317 63.195,59.294C63.195,59.38 63.197,59.465 63.2,59.55L63.2,70.55L61.77,70.55L61.77,50.74L63.17,50.74L63.17,54.8C64.9,51.84 67.57,50.74 70.92,50.66Z" style="fill:white;fill-rule:nonzero;"/>
        <path id="path16" d="M2.13,60C2.34,59 2.47,57.91 2.76,56.89C4.49,50.74 11.54,48.18 16.39,51.99C19.23,54.22 19.94,57.38 19.8,60.94L3.8,60.94C3.54,67.3 8.13,71.14 14,69.18C15.932,68.489 17.39,66.865 17.87,64.87C18.18,63.87 18.68,63.7 19.63,63.99C19.313,66.455 17.882,68.643 15.75,69.92C12.191,71.866 7.755,71.299 4.8,68.52C3.371,66.914 2.507,64.883 2.34,62.74C2.34,62.4 2.21,62.06 2.14,61.74C2.133,61.147 2.13,60.567 2.13,60ZM3.82,59.57L18.29,59.57C18.2,54.96 15.29,51.69 11.41,51.66C7.09,51.6 4,54.8 3.81,59.55L3.82,59.57Z" style="fill:white;fill-rule:nonzero;"/>
    </g>
</svg>
